# xmcd
#
# Track frame offsets:
#	150
#	15520
#	28225
#	43352
#	60250
#	78860
#	95492
#	107877
#	122927
#	138257
#	150930
#	166042
#	182912
#	201472
#	218070
#	230467
#
# Disc length: 3272 seconds
#
# Revision: 1
# Processed by: cddbd v1.5.2PL0 Copyright (c) Steve Scherf et al.
# Submitted via: audiograbber 1.83.01
#
DISCID=d20cc610
DTITLE=Martina Mcbride  - Karaoke Hits of Martina Mcbride
DYEAR=1900
DGENRE=Karaoke
TTITLE0=Martina Mcbride - Safe In The Arms Of Love
TTITLE1=Martina Mcbride - My Baby Loves Me
TTITLE2=Martina Mcbride - Cheap Whiskey
TTITLE3=Martina Mcbride - Live # 9
TTITLE4=Martine Mcbride - Thats Me
TTITLE5=Martina Mcbride - Independance Day
TTITLE6=Martina Mcbride - The Time Has Come
TTITLE7=Martina Mcbide - Cry On The Shoulder Of The Road
TTITLE8=Martina Mcbride - Safe In The Arms
TTITLE9=Martina Mcbride - My Baby Loves Me
TTITLE10=Martina Mcbride - Cheap Wiskey
TTITLE11=Martina Mcbride - Life # 9
TTITLE12=Martina Mcbride - Thats Me
TTITLE13=Martina Mcbride - Independance Day
TTITLE14=Martina Mcbride - The Time Has Come
TTITLE15=Martina Mcbride - Cry On The Shoulder Of The Road
EXTD=
EXTT0=
EXTT1=
EXTT2=
EXTT3=
EXTT4=
EXTT5=
EXTT6=
EXTT7=
EXTT8=
EXTT9=
EXTT10=
EXTT11=
EXTT12=
EXTT13=
EXTT14=
EXTT15=
PLAYORDER=
